<svg width="9" height="17" viewBox="0 0 9 17" fill="none" xmlns="http://www.w3.org/2000/svg">
<path d="M3.98786 10.7321H2.58446C1.14175 10.7321 0.420409 10.7321 0.11831 10.277C-0.183789 9.82179 0.119263 9.19164 0.725366 7.93112L3.52313 2.1131C3.90643 1.31604 4.09797 0.917511 4.29904 0.960123C4.50001 1.00275 4.50001 1.44191 4.50001 2.32026V6.68885C4.50001 6.92129 4.50001 7.03755 4.57499 7.10974C4.64997 7.18193 4.77074 7.18193 5.01217 7.18193H6.41557C7.85831 7.18193 8.57963 7.18193 8.8817 7.63704C9.18377 8.09226 8.88078 8.72242 8.27469 9.98284L5.4769 15.8009C5.0936 16.598 4.90206 16.9965 4.70098 16.9539C4.50001 16.9113 4.50001 16.4721 4.50001 15.5938V11.2252C4.50001 10.9928 4.50001 10.8765 4.42503 10.8043C4.35005 10.7321 4.22929 10.7321 3.98786 10.7321Z" fill="#FF8754"/>
</svg>
